<svg xmlns="http://www.w3.org/2000/svg" width="540" height="110">
  <rect x="140" y="20" width="360" height="70" fill="none" stroke="black"/>
  <rect x="140" y="20" width="360" height="35" fill="#9fb6df"/>
  <rect x="140" y="55" width="360" height="35" fill="white"/>
  <line x1="140" y1="55" x2="500" y2="55" stroke="black"/>
  <line x1="185" y1="20" x2="185" y2="90" stroke="black"/>
  <line x1="230" y1="20" x2="230" y2="90" stroke="black"/>
  <line x1="275" y1="20" x2="275" y2="90" stroke="black"/>
  <line x1="320" y1="20" x2="320" y2="90" stroke="black"/>
  <line x1="365" y1="20" x2="365" y2="90" stroke="black"/>
  <line x1="410" y1="20" x2="410" y2="90" stroke="black"/>
  <line x1="455" y1="20" x2="455" y2="90" stroke="black"/>

  <text x="162.5" y="45" font-size="16" text-anchor="middle">128</text>
  <text x="207.5" y="45" font-size="16" text-anchor="middle">64</text>
  <text x="252.5" y="45" font-size="16" text-anchor="middle">32</text>
  <text x="297.5" y="45" font-size="16" text-anchor="middle">16</text>
  <text x="342.5" y="45" font-size="16" text-anchor="middle">8</text>
  <text x="387.5" y="45" font-size="16" text-anchor="middle">4</text>
  <text x="432.5" y="45" font-size="16" text-anchor="middle">2</text>
  <text x="477.5" y="45" font-size="16" text-anchor="middle">1</text>

  <text x="162.5" y="80" font-size="18" text-anchor="middle" font-weight="bold">1</text>
  <text x="207.5" y="80" font-size="18" text-anchor="middle" font-weight="bold">0</text>
  <text x="252.5" y="80" font-size="18" text-anchor="middle" font-weight="bold">1</text>
  <text x="297.5" y="80" font-size="18" text-anchor="middle" font-weight="bold">0</text>
  <text x="342.5" y="80" font-size="18" text-anchor="middle" font-weight="bold">0</text>
  <text x="387.5" y="80" font-size="18" text-anchor="middle" font-weight="bold">1</text>
  <text x="432.5" y="80" font-size="18" text-anchor="middle" font-weight="bold">1</text>
  <text x="477.5" y="80" font-size="18" text-anchor="middle" font-weight="bold">0</text>
</svg>