<svg xmlns="http://www.w3.org/2000/svg" width="540" height="150">
  <rect x="140" y="20" width="360" height="110" fill="none" stroke="black"/>
  <rect x="140" y="20" width="360" height="40" fill="#9fb6df"/>
  <rect x="140" y="60" width="360" height="40" fill="#9fb6df"/>
  <line x1="140" y1="60" x2="500" y2="60" stroke="black"/>
  <line x1="140" y1="100" x2="500" y2="100" stroke="black"/>
  <line x1="185" y1="20" x2="185" y2="130" stroke="black"/>
  <line x1="230" y1="20" x2="230" y2="130" stroke="black"/>
  <line x1="275" y1="20" x2="275" y2="130" stroke="black"/>
  <line x1="320" y1="20" x2="320" y2="130" stroke="black"/>
  <line x1="365" y1="20" x2="365" y2="130" stroke="black"/>
  <line x1="410" y1="20" x2="410" y2="130" stroke="black"/>
  <line x1="455" y1="20" x2="455" y2="130" stroke="black"/>

  <text x="10" y="45" font-size="14">Powers of 2</text>
  <text x="10" y="85" font-size="14">Place Values</text>
  <text x="10" y="125" font-size="14">Bits</text>

  <text x="162.5" y="45" font-size="18" text-anchor="middle">2<tspan font-size="11" baseline-shift="super">7</tspan></text>
  <text x="207.5" y="45" font-size="18" text-anchor="middle">2<tspan font-size="11" baseline-shift="super">6</tspan></text>
  <text x="252.5" y="45" font-size="18" text-anchor="middle">2<tspan font-size="11" baseline-shift="super">5</tspan></text>
  <text x="297.5" y="45" font-size="18" text-anchor="middle">2<tspan font-size="11" baseline-shift="super">4</tspan></text>
  <text x="342.5" y="45" font-size="18" text-anchor="middle">2<tspan font-size="11" baseline-shift="super">3</tspan></text>
  <text x="387.5" y="45" font-size="18" text-anchor="middle">2<tspan font-size="11" baseline-shift="super">2</tspan></text>
  <text x="432.5" y="45" font-size="18" text-anchor="middle">2<tspan font-size="11" baseline-shift="super">1</tspan></text>
  <text x="477.5" y="45" font-size="18" text-anchor="middle">2<tspan font-size="11" baseline-shift="super">0</tspan></text>

  <text x="162.5" y="85" font-size="16" text-anchor="middle">128</text>
  <text x="207.5" y="85" font-size="16" text-anchor="middle">64</text>
  <text x="252.5" y="85" font-size="16" text-anchor="middle">32</text>
  <text x="297.5" y="85" font-size="16" text-anchor="middle">16</text>
  <text x="342.5" y="85" font-size="16" text-anchor="middle">8</text>
  <text x="387.5" y="85" font-size="16" text-anchor="middle">4</text>
  <text x="432.5" y="85" font-size="16" text-anchor="middle">2</text>
  <text x="477.5" y="85" font-size="16" text-anchor="middle">1</text>

  <text x="162.5" y="125" font-size="16" text-anchor="middle">0</text>
  <text x="207.5" y="125" font-size="16" text-anchor="middle">1</text>
  <text x="252.5" y="125" font-size="16" text-anchor="middle">0</text>
  <text x="297.5" y="125" font-size="16" text-anchor="middle">1</text>
  <text x="342.5" y="125" font-size="16" text-anchor="middle">0</text>
  <text x="387.5" y="125" font-size="16" text-anchor="middle">1</text>
  <text x="432.5" y="125" font-size="16" text-anchor="middle">1</text>
  <text x="477.5" y="125" font-size="16" text-anchor="middle">1</text>
</svg>