<svg width="940" height="260" xmlns="http://www.w3.org/2000/svg"><defs><marker id="arrow" viewBox="0 0 10 10" refX="10" refY="5" markerWidth="6" markerHeight="6" orient="auto-start-reverse"><path d="M0 0 10 5 0 10Z" fill="black"/></marker></defs><rect x="0" y="20" width="270" height="230" fill="#fff" stroke="#000"/><rect x="0" y="20" width="270" height="24" fill="#f2f2f2" stroke="#000"/><text x="135" y="36" text-anchor="middle" font-weight="bold">Customers</text><line x1="0" y1="44" x2="270" y2="44" stroke="#000"/><line x1="40" y1="44" x2="40" y2="236" stroke="#000"/><line x1="190" y1="44" x2="190" y2="236" stroke="#000"/><line x1="0" y1="68" x2="270" y2="68" stroke="#000"/><text x="20" y="60" font-size="12" text-anchor="middle" font-weight="bold">PK</text><text x="115" y="60" font-size="12" text-anchor="middle" font-weight="bold" text-decoration="underline">customer_id</text><text x="230" y="60" font-size="12" text-anchor="middle" font-weight="bold">INTEGER</text><text x="20" y="90" font-size="12" text-anchor="middle">U</text><text x="115" y="90" font-size="12" text-anchor="middle">name</text><text x="230" y="90" font-size="12" text-anchor="middle">TEXT</text><text x="115" y="114" font-size="12" text-anchor="middle">street_address</text><text x="230" y="114" font-size="12" text-anchor="middle">TEXT</text><text x="115" y="138" font-size="12" text-anchor="middle">city</text><text x="230" y="138" font-size="12" text-anchor="middle">TEXT</text><text x="115" y="162" font-size="12" text-anchor="middle">state</text><text x="230" y="162" font-size="12" text-anchor="middle">TEXT</text><text x="115" y="186" font-size="12" text-anchor="middle">postal_code</text><text x="230" y="186" font-size="12" text-anchor="middle">TEXT</text><text x="115" y="210" font-size="12" text-anchor="middle">phone</text><text x="230" y="210" font-size="12" text-anchor="middle">TEXT</text><text x="20" y="234" font-size="12" text-anchor="middle">U</text><text x="115" y="234" font-size="12" text-anchor="middle">email</text><text x="230" y="234" font-size="12" text-anchor="middle">TEXT</text><rect x="310" y="20" width="285" height="220" fill="#fff" stroke="#000"/><rect x="310" y="20" width="285" height="24" fill="#f2f2f2" stroke="#000"/><text x="452" y="36" text-anchor="middle" font-weight="bold">Customer_Orders</text><line x1="310" y1="44" x2="595" y2="44" stroke="#000"/><line x1="350" y1="44" x2="350" y2="232" stroke="#000"/><line x1="515" y1="44" x2="515" y2="232" stroke="#000"/><line x1="310" y1="68" x2="595" y2="68" stroke="#000"/><text x="330" y="60" font-size="12" text-anchor="middle" font-weight="bold">PK</text><text x="435" y="60" font-size="12" text-anchor="middle" font-weight="bold" text-decoration="underline">line_item_id</text><text x="555" y="60" font-size="12" text-anchor="middle" font-weight="bold">INTEGER</text><text x="435" y="90" font-size="12" text-anchor="middle">order_id</text><text x="555" y="90" font-size="12" text-anchor="middle">INTEGER</text><text x="435" y="114" font-size="12" text-anchor="middle">customer_id</text><text x="555" y="114" font-size="12" text-anchor="middle">INTEGER</text><text x="435" y="138" font-size="12" text-anchor="middle">product_id</text><text x="555" y="138" font-size="12" text-anchor="middle">INTEGER</text><text x="435" y="162" font-size="12" text-anchor="middle">quantity</text><text x="555" y="162" font-size="12" text-anchor="middle">INTEGER</text><text x="435" y="186" font-size="12" text-anchor="middle">order_date</text><text x="555" y="186" font-size="12" text-anchor="middle">TEXT</text><rect x="635" y="20" width="290" height="190" fill="#fff" stroke="#000"/><rect x="635" y="20" width="290" height="24" fill="#f2f2f2" stroke="#000"/><text x="780" y="36" text-anchor="middle" font-weight="bold">Products</text><line x1="635" y1="44" x2="925" y2="44" stroke="#000"/><line x1="675" y1="44" x2="675" y2="210" stroke="#000"/><line x1="845" y1="44" x2="845" y2="210" stroke="#000"/><line x1="635" y1="68" x2="925" y2="68" stroke="#000"/><text x="655" y="60" font-size="12" text-anchor="middle" font-weight="bold">PK</text><text x="760" y="60" font-size="12" text-anchor="middle" font-weight="bold" text-decoration="underline">product_id</text><text x="885" y="60" font-size="12" text-anchor="middle" font-weight="bold">INTEGER</text><text x="760" y="90" font-size="12" text-anchor="middle">name</text><text x="885" y="90" font-size="12" text-anchor="middle">TEXT</text><text x="760" y="114" font-size="12" text-anchor="middle">make</text><text x="885" y="114" font-size="12" text-anchor="middle">TEXT</text><text x="760" y="138" font-size="12" text-anchor="middle">model</text><text x="885" y="138" font-size="12" text-anchor="middle">TEXT</text><text x="760" y="162" font-size="12" text-anchor="middle">price</text><text x="885" y="162" font-size="12" text-anchor="middle">REAL</text><path d="M310 114 H290 V60 H270" fill="none" stroke="#000" marker-end="url(#arrow)"/><path d="M595 138 H615 V60 H635" fill="none" stroke="#000" marker-end="url(#arrow)"/></svg>