<svg width="620" height="500" xmlns="http://www.w3.org/2000/svg"><defs><marker id="arrow" viewBox="0 0 10 10" refX="10" refY="5" markerWidth="6" markerHeight="6" orient="auto-start-reverse"><path d="M0 0 10 5 0 10Z" fill="#000"/></marker></defs><polygon points="310,20 380,95 310,170 240,95" fill="#cfe3ff" stroke="none"/><text x="310" y="82" font-size="13" text-anchor="middle"><tspan x="310" dy="0">Check</tspan><tspan x="310" dy="16">loop expression</tspan></text><polygon points="310,220 360,270 310,320 260,270" fill="#cfe3ff" stroke="none"/><text x="310" y="275" font-size="14" text-anchor="middle">Break?</text><rect x="200" y="390" width="220" height="60" rx="6" ry="6" fill="#cfe3ff" stroke="none"/><text x="310" y="425" font-size="16" text-anchor="middle">Run code block</text><line x1="310" y1="170" x2="310" y2="220" stroke="#000" marker-end="url(#arrow)"/><text x="322" y="195" font-size="12">True</text><line x1="380" y1="95" x2="540" y2="95" stroke="#000"/><text x="470" y="84" font-size="12">False</text><line x1="540" y1="95" x2="540" y2="270" stroke="#000"/><line x1="360" y1="270" x2="540" y2="270" stroke="#000"/><text x="420" y="260" font-size="12">Yes</text><line x1="540" y1="270" x2="540" y2="420" stroke="#000" marker-end="url(#arrow)"/><text x="556" y="418" font-size="12">Exit loop</text><line x1="310" y1="320" x2="310" y2="390" stroke="#000" marker-end="url(#arrow)"/><text x="292" y="355" font-size="12">No</text><path d="M200 450 H30 V95 H240" fill="none" stroke="#000" marker-end="url(#arrow)"/></svg>