<svg width="450" height="160" xmlns="http://www.w3.org/2000/svg"> <!-- BEFORE row --> <!-- "1." aligned with first box --> <text x="0" y="55" font-size="14" font-weight="bold">1.</text> <!-- a --> <rect x="30" y="30" width="40" height="40" fill="none" stroke="black"/> <text x="50" y="55" text-anchor="middle" dominant-baseline="middle" font-size="14">'a'</text> <!-- b --> <rect x="80" y="30" width="40" height="40" fill="none" stroke="black"/> <text x="100" y="55" text-anchor="middle" dominant-baseline="middle" font-size="14">'b'</text> <!-- c (removed) --> <rect x="130" y="30" width="40" height="40" fill="#fbb" stroke="black"/> <text x="150" y="55" text-anchor="middle" dominant-baseline="middle" font-size="14">'c'</text> <!-- d --> <rect x="180" y="30" width="40" height="40" fill="none" stroke="black"/> <text x="200" y="55" text-anchor="middle" dominant-baseline="middle" font-size="14">'d'</text> <!-- e --> <rect x="230" y="30" width="40" height="40" fill="none" stroke="black"/> <text x="250" y="55" text-anchor="middle" dominant-baseline="middle" font-size="14">'e'</text> <!-- f --> <rect x="280" y="30" width="40" height="40" fill="none" stroke="black"/> <text x="300" y="55" text-anchor="middle" dominant-baseline="middle" font-size="14">'f'</text> <!-- g --> <rect x="330" y="30" width="40" height="40" fill="none" stroke="black"/> <text x="350" y="55" text-anchor="middle" dominant-baseline="middle" font-size="14">'g'</text> <!-- AFTER row --> <!-- "2." aligned with first box --> <text x="0" y="145" font-size="14" font-weight="bold">2.</text> <!-- a --> <rect x="30" y="120" width="40" height="40" fill="none" stroke="black"/> <text x="50" y="145" text-anchor="middle" dominant-baseline="middle" font-size="14">'a'</text> <!-- b --> <rect x="80" y="120" width="40" height="40" fill="none" stroke="black"/> <text x="100" y="145" text-anchor="middle" dominant-baseline="middle" font-size="14">'b'</text> <!-- d --> <rect x="130" y="120" width="40" height="40" fill="none" stroke="black"/> <text x="150" y="145" text-anchor="middle" dominant-baseline="middle" font-size="14">'d'</text> <!-- e --> <rect x="180" y="120" width="40" height="40" fill="none" stroke="black"/> <text x="200" y="145" text-anchor="middle" dominant-baseline="middle" font-size="14">'e'</text> <!-- f --> <rect x="230" y="120" width="40" height="40" fill="none" stroke="black"/> <text x="250" y="145" text-anchor="middle" dominant-baseline="middle" font-size="14">'f'</text> <!-- g --> <rect x="280" y="120" width="40" height="40" fill="none" stroke="black"/> <text x="300" y="145" text-anchor="middle" dominant-baseline="middle" font-size="14">'g'</text> </svg>