<svg width="580" height="340" xmlns="http://www.w3.org/2000/svg"><defs><marker id="arrow" viewBox="0 0 10 10" refX="10" refY="5" markerWidth="6" markerHeight="6" orient="auto-start-reverse"><path d="M0 0 L10 5 L0 10 Z" fill="black"/></marker></defs><g transform="translate(-160,0)"><rect x="320" y="40" width="240" height="280" fill="#eee" stroke="none"/><text x="230" y="22" font-size="16" font-weight="bold" text-anchor="middle">mascots</text><circle cx="230" cy="32" r="4" fill="white" stroke="black"/><rect x="160" y="52" width="140" height="260" fill="none" stroke="black"/><text x="165" y="46" font-size="12">keys</text><text x="330" y="46" font-size="12">values</text><rect x="170" y="62" width="120" height="40" fill="none" stroke="black"/><text x="230" y="86" text-anchor="middle" font-size="16">"BYU"</text><rect x="170" y="112" width="120" height="40" fill="none" stroke="black"/><text x="230" y="136" text-anchor="middle" font-size="16">"Utah"</text><rect x="170" y="162" width="120" height="40" fill="none" stroke="black"/><text x="230" y="186" text-anchor="middle" font-size="16">"Oregon"</text><rect x="170" y="212" width="120" height="40" fill="none" stroke="black"/><text x="230" y="236" text-anchor="middle" font-size="16">"UCLA"</text><rect x="170" y="262" width="120" height="40" fill="none" stroke="black"/><text x="230" y="286" text-anchor="middle" font-size="16">"UNLV"</text><rect x="360" y="62" width="170" height="40" rx="4" ry="4" fill="white" stroke="black"/><text x="445" y="86" text-anchor="middle" font-size="16">"Cougars"</text><rect x="360" y="112" width="170" height="40" rx="4" ry="4" fill="white" stroke="black"/><text x="445" y="136" text-anchor="middle" font-size="16">"Utes"</text><rect x="360" y="162" width="170" height="40" rx="4" ry="4" fill="white" stroke="black"/><text x="445" y="186" text-anchor="middle" font-size="16">"Ducks"</text><rect x="360" y="212" width="170" height="40" rx="4" ry="4" fill="white" stroke="black"/><text x="445" y="236" text-anchor="middle" font-size="16">"Bruins"</text><rect x="360" y="262" width="170" height="40" rx="4" ry="4" fill="white" stroke="black"/><text x="445" y="286" text-anchor="middle" font-size="16">"Rebels"</text><circle cx="290" cy="82" r="3" fill="white" stroke="black"/><circle cx="290" cy="132" r="3" fill="white" stroke="black"/><circle cx="290" cy="182" r="3" fill="white" stroke="black"/><circle cx="290" cy="232" r="3" fill="white" stroke="black"/><circle cx="290" cy="282" r="3" fill="white" stroke="black"/><line x1="290" y1="82" x2="360" y2="82" stroke="black" marker-end="url(#arrow)"/><line x1="290" y1="132" x2="360" y2="132" stroke="black" marker-end="url(#arrow)"/><line x1="290" y1="182" x2="360" y2="182" stroke="black" marker-end="url(#arrow)"/><line x1="290" y1="232" x2="360" y2="232" stroke="black" marker-end="url(#arrow)"/><line x1="290" y1="282" x2="360" y2="282" stroke="black" marker-end="url(#arrow)"/><line x1="230" y1="102" x2="230" y2="112" stroke="#999"/><line x1="230" y1="152" x2="230" y2="162" stroke="#999"/><line x1="230" y1="202" x2="230" y2="212" stroke="#999"/><line x1="230" y1="252" x2="230" y2="262" stroke="#999"/><path d="M230 36 L230 62" fill="none" stroke="black" marker-end="url(#arrow)"/></g></svg>